<?xml version="1.0" standalone="no"?>
<!DOCTYPE svg PUBLIC "-//W3C//DTD SVG 20010904//EN"
 "http://www.w3.org/TR/2001/REC-SVG-20010904/DTD/svg10.dtd">
<svg version="1.0" xmlns="http://www.w3.org/2000/svg"
 width="900.000000pt" height="880.000000pt" viewBox="0 0 900.000000 880.000000"
 preserveAspectRatio="xMidYMid meet">

<g transform="translate(0.000000,880.000000) scale(0.100000,-0.100000)"
fill="#000000" stroke="none">
<path d="M4487 8702 c-12 -13 -17 -38 -17 -83 -1 -35 -5 -84 -11 -109 -5 -25
-14 -85 -19 -135 -18 -171 -22 -190 -38 -202 -11 -9 -60 -13 -160 -13 -156 0
-331 -16 -347 -32 -7 -7 2 -8 25 -4 172 28 493 33 509 8 5 -8 11 18 15 65 4
43 9 89 10 103 2 14 11 93 21 175 21 181 20 179 43 169 9 -4 57 -9 105 -12 73
-3 91 -1 107 13 10 9 24 14 29 10 7 -3 11 2 11 14 0 12 -6 21 -14 21 -8 0 -16
7 -20 15 -4 12 -27 15 -119 15 -98 0 -116 -3 -130 -18z m243 -2 c3 0 -1 -4 -8
-9 -31 -19 -218 -9 -206 11 5 8 136 7 214 -2z"/>
<path d="M4670 8150 c0 -29 13 -40 25 -20 16 27 193 -15 218 -51 11 -15 16
-17 20 -6 5 13 -11 27 -60 53 -11 7 -45 15 -75 19 -29 4 -66 13 -82 21 -41 20
-46 18 -46 -16z"/>
<path d="M4457 8143 c3 -7 6 -13 8 -13 2 0 5 6 8 13 3 8 -1 14 -8 14 -7 0 -11
-6 -8 -14z"/>
<path d="M3860 8110 c0 -5 -6 -10 -14 -10 -7 0 -36 -6 -62 -14 -27 -8 -83 -22
-124 -31 -41 -9 -103 -30 -138 -47 -108 -52 -55 -42 63 12 20 10 143 38 200
47 25 4 33 0 44 -20 24 -46 178 -126 241 -126 19 0 31 2 25 4 -5 1 -36 10 -67
20 -65 19 -172 84 -182 110 -4 12 1 26 15 42 13 12 17 23 11 23 -7 0 -12 -4
-12 -10z"/>
<path d="M4400 8048 c-5 -24 -14 -59 -20 -78 -5 -19 -15 -77 -22 -129 -8 -63
-17 -95 -26 -99 -9 -3 -31 12 -56 40 -79 88 -136 86 -155 -4 -11 -48 -79 -158
-99 -158 -4 0 -23 -14 -42 -32 -19 -17 -63 -53 -98 -81 -94 -74 -133 -142
-165 -281 l-13 -59 -75 -40 c-177 -94 -220 -123 -330 -224 -40 -37 -53 -43
-105 -49 -85 -9 -214 -49 -323 -101 -81 -39 -108 -58 -176 -128 -103 -106
-122 -130 -151 -190 -33 -70 -41 -78 -114 -117 -36 -19 -82 -44 -103 -56 -21
-12 -42 -22 -48 -22 -6 0 -8 39 -5 108 l5 107 -13 -75 c-8 -41 -15 -98 -15
-127 -1 -35 -9 -67 -25 -97 -27 -50 -46 -127 -46 -182 0 -76 21 -124 81 -189
70 -74 79 -96 79 -186 0 -55 5 -80 26 -121 18 -36 28 -77 34 -137 5 -47 25
-142 44 -209 38 -129 38 -134 56 -297 6 -55 15 -125 20 -155 5 -30 14 -84 20
-120 6 -36 15 -121 20 -190 6 -69 14 -152 19 -185 6 -33 15 -121 21 -195 6
-74 15 -166 20 -205 5 -38 14 -128 20 -200 6 -71 18 -168 26 -215 17 -93 35
-252 58 -515 29 -327 35 -381 55 -485 11 -58 25 -145 31 -195 15 -127 29 -194
52 -238 12 -25 22 -75 28 -143 5 -58 11 -108 14 -112 2 -4 7 -68 11 -142 4
-74 9 -138 11 -142 3 -4 9 -58 15 -120 17 -191 25 -241 48 -302 21 -53 23 -68
16 -170 -8 -136 2 -180 54 -229 58 -55 199 -136 264 -152 15 -4 27 -11 27 -16
0 -5 10 -9 23 -9 12 0 31 -7 41 -15 11 -8 32 -15 47 -15 15 0 29 -5 31 -10 2
-6 36 -13 76 -17 39 -3 72 -9 72 -13 0 -5 27 -11 60 -15 33 -4 60 -10 60 -14
0 -11 72 -31 112 -31 19 0 38 -4 43 -9 14 -12 268 -34 450 -38 95 -2 192 3
265 12 63 8 140 15 172 15 32 0 58 4 58 10 0 6 36 10 88 10 99 0 223 16 232
30 3 5 30 12 60 16 30 4 57 10 60 13 3 4 32 12 65 18 107 20 147 31 154 39 8
12 100 44 124 44 9 0 17 4 17 9 0 5 14 12 30 16 17 4 30 11 30 16 0 5 7 9 15
9 8 0 28 13 45 30 17 16 36 30 43 30 7 0 20 8 28 18 9 9 30 28 48 42 17 14 31
30 31 37 0 6 6 18 13 25 22 24 39 102 44 206 3 56 9 102 13 102 5 0 12 17 16
38 4 20 10 39 14 42 4 3 17 42 29 87 16 63 21 113 21 208 0 77 4 125 10 125 6
0 10 48 11 123 1 187 27 357 58 376 11 7 25 62 42 166 5 32 14 64 19 69 6 6
10 42 10 82 0 40 4 74 9 76 10 3 37 215 51 414 12 159 18 213 24 223 3 4 6 56
7 114 1 59 5 107 9 107 4 0 10 45 14 99 3 55 11 112 16 126 6 14 10 65 10 113
1 48 7 121 15 162 7 41 21 176 30 300 9 124 21 239 26 255 16 44 36 285 39
450 0 30 3 36 10 25 7 -12 10 -8 11 15 1 48 9 89 20 100 5 5 9 18 9 30 0 12 5
26 11 32 12 12 22 52 43 178 8 44 15 76 16 70 2 -14 28 108 40 190 6 38 15 74
20 79 6 6 10 18 10 27 0 9 7 30 15 45 10 20 15 59 15 122 0 79 3 97 23 127 12
19 30 37 40 41 9 3 17 10 17 15 0 5 7 9 15 9 8 0 15 7 15 15 0 8 4 15 8 15 14
0 32 65 32 116 0 27 -9 68 -20 93 -11 24 -20 58 -20 77 0 19 -5 34 -11 34 -5
0 -51 41 -101 91 -50 50 -106 98 -123 107 -123 66 -220 102 -270 102 -30 0
-75 41 -75 69 0 39 -100 101 -220 137 -52 15 -76 29 -120 71 -30 29 -58 53
-62 53 -4 0 -19 11 -33 24 -38 35 -105 64 -166 72 -30 3 -64 12 -76 20 -28 18
-73 63 -73 73 0 27 -108 111 -142 111 -20 0 -118 54 -118 65 0 7 -7 15 -15 19
-10 4 -15 20 -15 50 0 30 -5 46 -15 50 -8 3 -15 11 -15 19 0 27 -148 139 -203
152 -15 4 -27 11 -27 16 0 4 -13 16 -29 25 -17 10 -28 21 -26 25 8 13 -52 36
-202 79 -62 18 -73 24 -73 43 0 18 -2 19 -10 7 -9 -14 -11 -13 -14 9 0 5 -5
13 -10 18 -5 5 -6 2 -1 -6 6 -11 -1 -12 -36 -6 -24 4 -45 11 -47 16 -2 5 -12
9 -23 9 -10 0 -19 4 -19 9 0 5 -16 12 -36 16 -31 5 -35 9 -29 28 4 12 9 36 12
53 5 34 -9 31 191 49 19 1 42 12 53 24 11 12 26 21 34 21 18 0 20 17 3 23 -9
2 -12 23 -11 62 2 73 -17 61 -25 -14 -4 -43 -8 -51 -26 -52 -11 0 -30 -3 -41
-6 -11 -3 -53 -7 -94 -9 l-73 -3 7 37 c16 81 21 143 14 148 -5 2 -13 -15 -19
-38z m-141 -482 c23 -12 27 -20 23 -45 -5 -37 -29 -41 -42 -7 -5 13 -14 27
-19 31 -14 8 -14 35 -1 35 6 0 24 -6 39 -14z m272 -36 c34 -25 133 -60 167
-60 65 0 199 -56 180 -75 -4 -4 -42 -13 -85 -21 -115 -20 -203 -64 -203 -101
0 -7 -7 -13 -15 -13 -8 0 -15 6 -15 13 0 7 -9 30 -20 52 -11 22 -20 55 -20 75
0 19 -11 61 -24 93 -27 64 -18 74 35 37z m-368 -110 c10 -30 25 -72 34 -92 21
-49 11 -82 -38 -128 l-40 -37 -117 -5 c-139 -7 -172 2 -172 43 0 39 37 135 65
167 l24 27 15 -37 c44 -104 156 -102 156 3 0 60 20 120 39 117 9 -2 23 -27 34
-58z m950 -276 c2 -26 -1 -29 -30 -32 -27 -3 -33 0 -34 17 -1 12 -2 26 -3 33
-1 14 45 28 57 18 4 -4 9 -20 10 -36z m-583 10 c59 -12 81 -22 104 -45 15 -17
25 -33 22 -37 -11 -11 -187 -2 -266 14 -127 25 -135 31 -72 56 20 9 48 21 62
27 14 5 36 8 50 5 14 -3 59 -12 100 -20z m-662 -182 c79 -41 118 -43 354 -17
l177 19 88 -21 c58 -14 93 -18 105 -12 27 15 54 10 74 -12 18 -20 27 -21 144
-17 115 4 132 8 217 41 51 20 99 37 106 37 7 0 22 7 33 15 28 21 108 19 154
-5 48 -25 110 -78 110 -95 0 -15 -218 -28 -520 -29 l-215 -1 -145 -74 c-80
-41 -181 -89 -225 -108 -44 -19 -124 -64 -178 -100 -61 -41 -104 -63 -115 -60
-9 3 -44 17 -77 31 -33 14 -70 26 -82 26 -12 0 -57 26 -100 58 -117 87 -144
96 -301 97 -72 1 -135 4 -138 8 -10 10 127 140 197 187 35 24 95 56 134 70 79
29 67 32 203 -38z m1785 -187 c20 -8 38 -19 42 -25 3 -6 33 -28 66 -51 72 -48
73 -66 6 -91 -38 -14 -92 -19 -294 -23 -230 -5 -251 -7 -315 -30 -51 -18 -99
-27 -183 -31 -132 -8 -177 2 -100 21 28 7 82 24 120 38 62 22 178 53 385 103
72 17 124 47 139 81 9 19 19 23 55 23 24 0 60 -7 79 -15z m-2590 -102 c3 -10
8 -39 12 -65 3 -26 10 -50 16 -53 5 -4 9 -20 9 -37 0 -40 48 -86 157 -151 95
-57 138 -65 231 -44 226 52 208 50 363 37 257 -22 296 -23 321 -6 13 9 39 39
58 68 70 103 128 116 122 26 l-3 -44 89 -76 c94 -81 102 -94 102 -183 l0 -42
-94 -12 c-51 -7 -131 -26 -177 -43 -46 -17 -109 -40 -139 -51 -61 -22 -74 -22
-604 -15 l-280 3 -8 32 c-10 37 -62 86 -126 115 -142 66 -170 144 -72 202 119
71 81 145 -113 217 -32 12 -60 26 -63 31 -10 16 17 38 90 73 80 39 103 43 109
18z m1628 -61 c25 -15 64 -38 85 -52 l39 -25 -170 -3 c-93 -1 -175 0 -182 2
-20 8 -16 54 6 66 27 14 121 39 151 39 14 0 46 -12 71 -27z m-1144 -22 c29
-18 44 -49 46 -91 2 -34 2 -34 -47 -37 -66 -4 -246 14 -259 27 -14 14 22 71
64 99 30 21 43 23 104 20 39 -3 80 -11 92 -18z m2501 -29 c53 -42 92 -87 92
-105 0 -7 12 -26 28 -44 24 -29 38 -34 132 -53 102 -20 187 -54 183 -74 -1 -6
-17 -13 -35 -16 -18 -3 -65 -20 -105 -37 -93 -40 -187 -57 -525 -96 -69 -8
-184 -29 -254 -47 -109 -27 -132 -30 -163 -20 -20 6 -79 18 -131 25 -52 8
-115 23 -140 33 -25 11 -67 25 -94 32 -27 7 -68 23 -91 37 -54 31 -129 33
-186 4 -22 -12 -42 -27 -46 -35 -8 -21 -30 -18 -36 5 -6 24 106 126 161 146
51 18 239 17 413 -2 164 -18 316 -15 371 9 21 9 64 38 96 65 33 27 88 66 123
87 77 46 108 73 120 103 12 31 30 28 87 -17z m-3298 -110 c0 -21 9 -58 19 -82
29 -64 43 -138 36 -180 -8 -48 -39 -61 -114 -47 -55 10 -222 6 -278 -7 -36 -8
-43 4 -17 26 8 7 66 38 127 69 l112 56 6 51 c7 57 10 62 53 115 40 49 56 49
56 -1z m3870 -268 l23 -27 -29 -22 c-48 -39 -220 -82 -209 -52 3 7 23 21 44
31 21 10 60 36 87 57 27 21 52 39 55 39 3 1 16 -11 29 -26z m101 -117 c-12
-14 -153 -86 -168 -86 -5 0 26 23 67 50 73 48 127 68 101 36z m-4001 -52 c109
-19 230 -53 230 -65 0 -12 -39 -11 -76 0 -16 5 -56 14 -89 21 -114 23 -189 43
-220 57 -30 14 -30 14 15 8 25 -3 88 -13 140 -21z m3750 6 c-36 -11 -50 -11
-50 0 0 6 17 10 38 9 33 -1 34 -2 12 -9z m-4041 -55 c8 -8 12 -17 8 -21 -10
-10 -65 16 -71 33 -5 12 -1 14 21 8 16 -3 34 -13 42 -20z m261 -23 c57 -15 95
-28 83 -30 -12 -2 -31 2 -42 7 -11 6 -40 11 -65 11 -49 0 -126 26 -126 42 0 6
10 8 23 4 12 -4 69 -19 127 -34z m3790 13 c-49 -29 -127 -45 -268 -54 -142
-10 -218 -4 -137 11 117 21 289 45 420 56 6 1 -1 -5 -15 -13z m-2160 -9 c0
-20 -16 -36 -36 -36 -28 0 -31 15 -6 29 17 11 42 14 42 7z m2428 -18 c-3 -7
-15 -15 -28 -16 -21 -3 -22 -2 -11 12 16 19 44 21 39 4z m-3397 -43 c68 -14
127 -25 132 -25 4 0 7 -5 7 -11 0 -7 -16 -9 -47 -5 -27 3 -82 9 -123 14 -84
10 -160 31 -160 44 0 14 63 9 191 -17z m-414 -1 c-3 -3 -12 -4 -19 -1 -8 3 -5
6 6 6 11 1 17 -2 13 -5z m1258 -14 c61 -6 146 -15 190 -20 129 -16 648 -12
810 6 167 18 331 33 365 33 l25 0 -26 -14 c-50 -27 -534 -55 -954 -55 -494 1
-790 20 -910 60 -39 13 345 5 500 -10z m-1650 -35 c28 -4 95 -22 150 -40 94
-31 286 -69 490 -95 50 -6 112 -16 138 -21 26 -5 97 -9 156 -9 59 0 164 -5
232 -10 148 -12 965 -31 1562 -37 427 -4 429 -4 575 22 81 14 176 33 212 41
96 21 191 44 225 54 17 5 98 27 180 49 83 22 160 43 173 47 29 8 28 -4 -6 -44
-22 -27 -44 -38 -129 -62 -120 -36 -244 -62 -448 -96 -294 -49 -381 -54 -983
-54 -310 0 -568 2 -573 6 -5 3 -204 9 -442 14 -402 9 -476 14 -757 49 -41 6
-158 19 -260 31 -106 12 -223 31 -275 46 -132 37 -288 94 -305 111 -13 14 -12
15 10 10 14 -3 48 -9 75 -12z m3385 -10 c-19 -7 -45 -14 -57 -14 -12 -1 -42
-10 -68 -21 -39 -17 -70 -20 -173 -21 -68 0 -129 4 -134 9 -9 9 65 20 247 37
97 9 149 16 154 21 2 2 18 4 35 3 l31 -1 -35 -13z m-3472 -59 c15 -7 63 -25
107 -40 44 -15 88 -31 97 -36 10 -6 26 -10 36 -10 10 0 22 -4 27 -9 10 -9 140
-31 300 -50 50 -6 164 -21 255 -32 316 -39 457 -47 877 -53 232 -3 433 -10
447 -16 35 -13 939 -7 1116 8 80 7 210 24 290 38 80 14 163 27 185 30 22 3 58
10 80 15 22 6 72 16 110 24 39 7 90 20 115 28 25 8 57 17 71 21 l25 5 -12 -87
c-11 -85 -28 -148 -45 -166 -5 -6 -9 -25 -9 -43 0 -22 -5 -33 -15 -33 -14 0
-92 -24 -130 -39 -35 -15 -103 -31 -167 -41 -35 -5 -81 -13 -103 -18 -127 -31
-239 -52 -305 -56 -41 -3 -120 -10 -175 -16 -55 -6 -134 -13 -175 -15 -41 -2
-148 -8 -237 -15 -185 -12 -1339 -5 -1413 9 -25 5 -47 8 -51 6 -3 -2 -43 3
-90 11 -46 8 -124 19 -174 24 -49 4 -137 20 -195 35 -58 14 -125 30 -150 35
-25 4 -72 16 -105 25 -33 9 -76 20 -95 25 -19 4 -60 15 -90 23 -52 14 -125 30
-266 57 -34 7 -66 15 -71 19 -6 3 -22 31 -37 62 -19 42 -26 72 -26 119 0 60
-11 112 -31 153 -11 21 -6 21 29 3z m902 -22 c220 -24 255 -34 109 -29 -107 4
-202 14 -296 31 -40 8 -26 26 15 20 20 -4 98 -13 172 -22z m928 -51 c-38 -2
-98 -2 -135 0 -38 2 -7 3 67 3 74 0 105 -1 68 -3z m255 0 c-13 -2 -33 -2 -45
0 -13 2 -3 4 22 4 25 0 35 -2 23 -4z m115 0 c-10 -2 -28 -2 -40 0 -13 2 -5 4
17 4 22 1 32 -1 23 -4z m447 -12 c72 -6 48 -8 -115 -8 -113 0 -187 3 -165 7
53 9 168 10 280 1z m-2527 -325 c26 -8 79 -19 117 -26 39 -6 84 -16 100 -20
43 -12 99 -26 235 -60 31 -7 76 -18 210 -50 19 -4 62 -15 94 -24 32 -9 107
-21 165 -26 58 -6 129 -15 156 -20 120 -25 380 -31 1065 -26 795 6 851 7 845
17 -3 3 28 9 68 12 232 19 374 39 472 67 22 6 76 18 120 25 102 17 135 25 160
35 107 44 151 51 142 23 -18 -57 -47 -169 -47 -184 0 -12 -20 -23 -72 -39 -40
-12 -92 -31 -115 -41 -39 -17 -58 -23 -168 -50 -118 -29 -336 -68 -500 -90
-44 -5 -91 -12 -105 -15 -74 -15 -297 -24 -455 -19 -197 6 -269 11 -500 34
-55 6 -203 11 -330 11 -237 1 -265 3 -520 39 -82 12 -167 21 -187 21 -20 0
-39 4 -42 9 -3 4 -33 9 -68 10 -34 1 -78 5 -97 10 -20 5 -72 12 -116 16 -44 3
-93 11 -110 16 -16 5 -93 21 -170 35 -77 14 -144 30 -149 35 -6 5 -21 9 -34 9
-13 0 -21 3 -19 8 3 4 -12 8 -32 10 -21 1 -57 8 -82 15 -47 14 -52 22 -79 152
-5 22 -12 52 -16 68 -7 32 -2 33 64 13z m160 -323 c18 -3 35 -10 38 -14 3 -5
21 -9 40 -9 19 0 34 -4 34 -10 0 -5 17 -10 38 -10 20 -1 57 -5 82 -10 119 -26
149 -32 205 -40 91 -14 300 -40 395 -50 126 -13 242 -29 270 -36 63 -15 366
-31 504 -25 81 3 153 3 160 -1 6 -4 41 -8 78 -8 37 0 69 -4 72 -8 12 -19 863
-25 887 -6 8 6 38 12 68 13 30 1 59 5 65 8 6 4 24 8 41 10 30 2 107 13 135 19
8 2 42 7 75 13 95 16 156 29 215 46 30 8 71 18 90 22 19 3 40 9 45 13 6 3 30
13 55 20 25 7 50 17 55 20 21 15 75 29 75 20 0 -5 -11 -34 -25 -64 -14 -30
-25 -63 -25 -73 0 -10 -12 -23 -27 -30 -37 -15 -154 -43 -181 -43 -11 0 -24
-4 -27 -10 -3 -5 -17 -10 -31 -10 -13 0 -32 -4 -42 -9 -9 -5 -51 -17 -92 -26
-75 -16 -130 -28 -205 -46 -58 -14 -168 -27 -181 -22 -7 2 -15 0 -19 -6 -3 -6
-37 -11 -76 -11 -38 0 -69 -4 -69 -8 0 -5 -21 -10 -47 -11 -25 0 -76 -8 -112
-17 -54 -12 -142 -15 -486 -15 -231 1 -451 3 -490 6 -38 2 -131 7 -205 10
-256 11 -446 30 -456 46 -3 5 -20 9 -37 9 -18 0 -57 7 -87 15 -30 8 -70 15
-89 15 -19 0 -48 4 -65 9 -17 6 -76 18 -131 28 -55 9 -102 20 -105 24 -3 4
-23 9 -45 12 -22 3 -60 10 -85 17 -25 6 -50 13 -57 14 -7 1 -16 5 -19 9 -4 4
-16 7 -27 7 -12 0 -34 4 -51 9 -80 23 -144 45 -181 61 -22 10 -47 20 -56 23
-11 4 -18 23 -23 60 -3 31 -9 62 -12 70 -5 14 1 14 53 1 32 -8 73 -17 91 -21z
m-92 -191 c-4 15 3 14 52 -9 31 -14 80 -30 107 -35 28 -5 59 -13 70 -17 11 -5
43 -14 70 -21 28 -7 59 -16 70 -20 11 -5 47 -13 80 -19 33 -6 78 -15 100 -21
110 -26 235 -49 273 -49 23 -1 42 -5 42 -11 0 -5 17 -10 38 -10 20 0 75 -10
122 -21 143 -35 584 -57 1165 -58 291 0 406 3 455 13 74 15 163 29 365 56 77
10 172 25 210 33 39 8 86 18 105 22 19 4 44 10 55 14 28 11 240 64 310 78 17
3 36 10 43 15 16 14 16 -26 -3 -162 -8 -58 -15 -139 -15 -180 -1 -41 -8 -113
-15 -160 -8 -47 -20 -146 -25 -220 -13 -155 -15 -180 -30 -275 -10 -66 -22
-172 -35 -310 -3 -33 -10 -96 -16 -140 -6 -44 -15 -125 -19 -180 -4 -55 -15
-163 -24 -240 -9 -77 -19 -185 -22 -240 -3 -55 -7 -109 -10 -120 -3 -11 -9
-51 -14 -90 -13 -102 -62 -375 -85 -473 -3 -14 -10 -20 -17 -16 -7 4 -8 3 -4
-5 7 -11 -6 -66 -25 -107 -6 -11 -9 -24 -8 -30 1 -5 1 -23 0 -40 -1 -29 -5
-32 -78 -56 -55 -18 -82 -22 -91 -15 -7 5 -15 7 -19 3 -3 -3 -1 -6 5 -6 7 0
12 -4 12 -8 0 -10 -70 -36 -77 -28 -4 3 -11 2 -17 -3 -13 -11 -71 -22 -148
-28 -32 -3 -58 -9 -58 -14 0 -5 -15 -9 -33 -9 -19 0 -85 -10 -148 -22 -99 -19
-149 -22 -379 -22 -260 -1 -532 8 -680 21 -41 4 -115 7 -165 8 -246 4 -412 21
-530 53 -71 19 -167 57 -161 63 2 2 -8 5 -22 5 -25 1 -232 57 -277 74 -44 17
-82 29 -112 35 -30 6 -33 10 -33 40 0 19 -8 49 -19 67 -23 42 -33 88 -35 160
0 31 -4 52 -7 47 -3 -5 -11 39 -19 98 -7 60 -16 113 -20 118 -14 18 -37 239
-41 382 -1 48 -5 93 -9 98 -8 11 -18 101 -29 275 -4 63 -13 140 -19 170 -15
76 -29 177 -42 295 -5 55 -15 143 -21 195 -6 52 -15 149 -19 215 -5 66 -15
156 -24 200 -9 44 -16 107 -16 140 0 33 -7 96 -15 140 -8 44 -15 99 -15 122 0
23 -4 52 -9 65 -4 13 -11 64 -15 113 -6 84 -5 88 10 65 8 -14 13 -17 10 -8z
m442 -3072 c31 -12 77 -25 102 -30 67 -15 334 -103 338 -112 2 -5 15 -8 28 -8
13 0 24 -4 24 -8 0 -18 279 -46 555 -57 39 -1 178 -8 310 -15 283 -14 836 -8
910 9 28 7 79 16 115 21 124 16 352 56 335 59 -5 1 35 17 90 35 55 19 101 33
103 31 2 -2 -1 -47 -7 -102 -6 -54 -15 -174 -21 -268 -11 -175 -27 -261 -60
-321 -11 -19 -20 -41 -20 -49 0 -8 -8 -15 -17 -15 -15 0 -16 -2 -3 -10 8 -5
11 -12 7 -17 -4 -4 -18 -1 -30 6 -20 13 -21 13 -8 -2 11 -14 11 -18 -5 -23
-11 -3 -37 -14 -59 -24 -22 -9 -67 -25 -100 -35 -33 -9 -91 -27 -130 -40 -123
-41 -239 -65 -450 -96 -85 -13 -821 -6 -1075 10 -316 20 -386 27 -406 42 -6 5
-13 6 -16 4 -6 -6 -121 22 -213 52 -58 18 -79 33 -48 33 12 0 24 4 28 9 3 6
-7 6 -27 0 -28 -8 -43 -4 -105 26 -39 19 -79 35 -87 35 -10 0 -16 9 -16 25 0
15 -8 40 -17 58 -9 18 -16 35 -15 40 1 4 -3 7 -9 7 -7 0 -9 27 -7 79 2 44 0
77 -4 74 -10 -5 -8 -12 -14 72 -3 39 -10 86 -15 105 -5 19 -12 89 -15 155 -3
66 -9 129 -14 140 -5 11 -10 44 -12 73 -3 60 -2 61 80 32z m133 -951 c46 -22
92 -45 101 -50 10 -5 27 -9 37 -9 11 0 22 -4 25 -8 7 -12 162 -51 281 -72 105
-18 759 -50 1029 -50 144 1 282 -1 309 -3 26 -2 47 0 47 5 0 4 18 8 39 8 88 0
489 93 563 131 10 5 24 9 31 9 8 0 53 16 102 35 49 19 90 33 92 31 2 -2 -2
-38 -8 -81 -10 -67 -16 -82 -43 -106 -17 -16 -40 -31 -50 -35 -11 -4 -31 -17
-45 -31 -14 -13 -60 -40 -101 -60 -41 -20 -79 -38 -84 -41 -5 -3 -1 7 10 21
10 15 22 27 27 27 11 0 8 45 -4 57 -6 6 -23 8 -45 3 -42 -10 -44 4 -4 25 39
20 40 45 1 45 -19 0 -36 -8 -48 -24 l-19 -24 -23 35 c-16 26 -27 33 -39 27 -9
-4 -25 -7 -34 -8 -13 0 -16 -6 -12 -18 7 -22 -5 -23 -20 -2 -17 22 -49 7 -42
-20 18 -64 18 -66 2 -66 -9 0 -19 -7 -22 -15 -4 -8 -16 -16 -28 -16 -17 -1
-18 -2 -3 -6 14 -4 16 -8 6 -19 -17 -21 -29 -17 -29 11 0 14 6 25 13 25 7 0
19 9 27 19 7 11 17 18 21 16 4 -3 6 6 5 20 -2 33 -37 52 -71 37 -14 -6 -25
-18 -25 -27 0 -8 -4 -15 -10 -15 -5 0 -10 -9 -10 -20 0 -13 -10 -24 -25 -30
-14 -5 -25 -17 -25 -25 0 -15 -22 -45 -33 -45 -3 0 -7 9 -10 19 -5 20 35 65
47 54 3 -4 6 -1 6 6 0 7 5 9 10 6 15 -10 12 18 -6 43 -8 12 -25 22 -38 22 -31
0 -66 -32 -67 -61 -1 -23 -2 -23 -12 4 -8 20 -17 27 -32 25 -20 -3 -28 -37
-11 -49 11 -8 -3 -71 -15 -64 -4 3 -11 28 -15 55 -5 40 -10 50 -25 50 -15 0
-19 -8 -20 -32 -1 -30 -2 -31 -8 -8 -9 33 -53 40 -73 11 -8 -12 -18 -18 -21
-14 -4 3 -7 -3 -7 -15 0 -17 -6 -22 -26 -22 -14 0 -34 -5 -45 -10 -22 -12 -24
-7 -9 21 9 16 15 17 31 8 19 -9 20 -8 17 18 -3 24 -7 28 -33 26 -19 -2 -38
-12 -52 -30 -17 -20 -23 -23 -23 -12 0 9 -8 27 -18 39 -15 19 -21 20 -45 9
-14 -6 -30 -21 -33 -33 -7 -20 -7 -20 -15 2 -8 22 -39 31 -39 11 0 -6 -9 -8
-20 -4 -51 16 -111 -116 -80 -176 15 -26 35 -24 59 7 19 25 23 26 20 7 -1 -11
25 -20 61 -19 34 1 35 2 42 51 3 28 8 59 11 70 3 11 6 25 7 30 3 18 18 -39 19
-75 2 -47 13 -64 40 -55 17 5 20 12 15 32 -5 19 -3 24 7 21 8 -3 25 -1 39 3
l25 9 -27 -23 c-28 -23 -38 -57 -17 -57 21 0 69 34 69 50 1 12 3 12 14 -2 16
-22 39 -23 70 -2 24 15 24 14 31 -26 4 -23 4 -44 1 -48 -4 -3 -44 -7 -89 -9
-45 -2 -125 -7 -177 -11 -52 -4 -120 -7 -150 -6 -30 1 -93 2 -140 3 l-85 1 -1
28 c-1 15 -7 47 -14 72 -19 74 -21 87 -7 98 14 11 75 21 80 13 2 -3 2 0 0 7
-1 8 -3 20 -3 28 0 7 -6 12 -12 10 -37 -12 -99 -16 -93 -6 10 16 -5 12 -32
-10 -14 -11 -34 -20 -44 -20 -10 0 -21 -5 -24 -10 -4 -6 -11 -8 -16 -5 -5 4
-9 -6 -9 -20 0 -24 3 -26 25 -21 78 19 72 20 78 -21 4 -21 11 -58 16 -83 6
-28 6 -47 0 -51 -14 -8 -154 -1 -214 10 -27 6 -63 13 -80 16 -32 6 -137 30
-195 44 -19 5 -60 14 -90 20 -64 13 -113 28 -155 46 -16 7 -55 23 -85 36 -68
29 -165 83 -186 104 -9 8 -18 15 -22 15 -4 0 -15 14 -24 31 -15 25 -17 45 -12
115 4 46 8 84 9 84 2 0 40 -18 86 -41z m2200 -259 c5 0 9 -15 9 -34 0 -20 6
-36 14 -39 19 -7 26 1 26 32 0 22 4 26 29 26 29 0 29 0 10 -18 -13 -13 -18
-25 -13 -39 4 -13 2 -18 -4 -14 -6 3 -13 2 -17 -4 -3 -5 -16 -10 -29 -10 -13
0 -49 -9 -82 -21 -32 -11 -79 -24 -104 -29 -123 -23 -311 -52 -314 -49 -2 2
-6 17 -10 33 -6 25 -5 28 13 23 11 -3 26 2 32 10 11 12 14 12 21 -1 13 -23 27
-19 34 9 5 21 8 23 21 10 22 -23 39 -18 75 19 l33 34 24 -24 c32 -33 53 -30
94 15 l35 39 6 -29 c4 -20 11 -29 25 -29 26 0 30 8 37 67 3 26 8 59 12 73 5
22 7 20 10 -12 2 -21 7 -38 13 -38z m-585 -87 c-10 -26 -18 -8 -9 23 5 21 8
24 11 11 2 -10 1 -25 -2 -34z"/>
<path d="M2472 5746 c7 -8 15 -12 17 -11 5 6 -10 25 -20 25 -5 0 -4 -6 3 -14z"/>
<path d="M6488 5643 c7 -3 16 -2 19 1 4 3 -2 6 -13 5 -11 0 -14 -3 -6 -6z"/>
<path d="M3348 5563 c6 -2 18 -2 25 0 6 3 1 5 -13 5 -14 0 -19 -2 -12 -5z"/>
<path d="M6048 5563 c6 -2 18 -2 25 0 6 3 1 5 -13 5 -14 0 -19 -2 -12 -5z"/>
<path d="M3498 5543 c7 -3 16 -2 19 1 4 3 -2 6 -13 5 -11 0 -14 -3 -6 -6z"/>
<path d="M6541 5504 c0 -11 3 -14 6 -6 3 7 2 16 -1 19 -3 4 -6 -2 -5 -13z"/>
<path d="M2778 5423 c7 -3 16 -2 19 1 4 3 -2 6 -13 5 -11 0 -14 -3 -6 -6z"/>
<path d="M6500 5400 c0 -5 5 -10 11 -10 5 0 7 5 4 10 -3 6 -8 10 -11 10 -2 0
-4 -4 -4 -10z"/>
<path d="M6408 5373 c7 -3 16 -2 19 1 4 3 -2 6 -13 5 -11 0 -14 -3 -6 -6z"/>
<path d="M6208 5313 c7 -3 16 -2 19 1 4 3 -2 6 -13 5 -11 0 -14 -3 -6 -6z"/>
<path d="M2768 5293 c6 -2 18 -2 25 0 6 3 1 5 -13 5 -14 0 -19 -2 -12 -5z"/>
<path d="M3368 5143 c7 -3 16 -2 19 1 4 3 -2 6 -13 5 -11 0 -14 -3 -6 -6z"/>
<path d="M3910 4940 c-9 -6 -10 -10 -3 -10 6 0 15 5 18 10 8 12 4 12 -15 0z"/>
<path d="M5758 4933 c6 -2 18 -2 25 0 6 3 1 5 -13 5 -14 0 -19 -2 -12 -5z"/>
<path d="M3168 4923 c6 -2 18 -2 25 0 6 3 1 5 -13 5 -14 0 -19 -2 -12 -5z"/>
<path d="M3808 4843 c7 -3 16 -2 19 1 4 3 -2 6 -13 5 -11 0 -14 -3 -6 -6z"/>
<path d="M5833 4843 c9 -2 23 -2 30 0 6 3 -1 5 -18 5 -16 0 -22 -2 -12 -5z"/>
<path d="M3868 4823 c6 -2 18 -2 25 0 6 3 1 5 -13 5 -14 0 -19 -2 -12 -5z"/>
<path d="M5788 4823 c7 -3 16 -2 19 1 4 3 -2 6 -13 5 -11 0 -14 -3 -6 -6z"/>
<path d="M5688 4813 c7 -3 16 -2 19 1 4 3 -2 6 -13 5 -11 0 -14 -3 -6 -6z"/>
<path d="M3308 4763 c7 -3 16 -2 19 1 4 3 -2 6 -13 5 -11 0 -14 -3 -6 -6z"/>
<path d="M5515 4690 c-3 -6 1 -7 9 -4 18 7 21 14 7 14 -6 0 -13 -4 -16 -10z"/>
<path d="M5360 4680 c0 -5 5 -10 11 -10 5 0 7 5 4 10 -3 6 -8 10 -11 10 -2 0
-4 -4 -4 -10z"/>
<path d="M5408 4673 c6 -2 18 -2 25 0 6 3 1 5 -13 5 -14 0 -19 -2 -12 -5z"/>
<path d="M6341 4694 c0 -11 3 -14 6 -6 3 7 2 16 -1 19 -3 4 -6 -2 -5 -13z"/>
<path d="M2672 4660 c0 -14 2 -19 5 -12 2 6 2 18 0 25 -3 6 -5 1 -5 -13z"/>
<path d="M3228 4673 c7 -3 16 -2 19 1 4 3 -2 6 -13 5 -11 0 -14 -3 -6 -6z"/>
<path d="M5978 4663 c7 -3 16 -2 19 1 4 3 -2 6 -13 5 -11 0 -14 -3 -6 -6z"/>
<path d="M5458 4583 c7 -3 16 -2 19 1 4 3 -2 6 -13 5 -11 0 -14 -3 -6 -6z"/>
<path d="M5518 4583 c7 -3 16 -2 19 1 4 3 -2 6 -13 5 -11 0 -14 -3 -6 -6z"/>
<path d="M3758 4563 c6 -2 18 -2 25 0 6 3 1 5 -13 5 -14 0 -19 -2 -12 -5z"/>
<path d="M4913 4523 c9 -2 25 -2 35 0 9 3 1 5 -18 5 -19 0 -27 -2 -17 -5z"/>
<path d="M4320 4490 c-8 -5 -28 -10 -44 -10 -38 0 -196 -30 -218 -41 -10 -5
-31 -9 -47 -9 -17 0 -32 -4 -35 -9 -3 -4 -24 -11 -46 -15 -23 -3 -49 -10 -58
-15 -9 -5 -51 -25 -92 -46 -131 -66 -225 -140 -312 -244 -44 -53 -93 -116
-108 -140 -18 -28 -30 -39 -33 -30 -2 8 -2 4 0 -8 2 -13 -1 -31 -6 -40 -38
-72 -76 -167 -86 -218 -26 -129 -13 -545 17 -545 4 0 8 -7 8 -15 0 -8 11 -48
25 -89 14 -41 25 -84 25 -95 0 -12 4 -21 9 -21 5 0 12 -12 16 -27 3 -15 15
-39 26 -54 11 -16 17 -35 13 -46 -4 -12 -3 -14 3 -5 7 9 13 6 21 -13 7 -15 9
-31 6 -37 -4 -6 -2 -8 4 -4 6 3 30 -26 58 -70 42 -68 214 -254 234 -254 4 0
14 -7 21 -16 7 -9 22 -20 34 -25 21 -9 57 -31 65 -39 3 -3 18 -12 35 -20 16
-8 75 -42 130 -75 117 -70 206 -96 425 -122 114 -14 440 -7 440 10 0 4 8 7 18
7 9 0 42 9 72 21 30 11 66 24 80 29 14 5 21 9 15 9 -5 1 18 14 52 30 114 54
219 129 279 199 32 37 68 77 80 89 13 13 35 40 51 60 15 21 36 47 46 57 9 11
17 24 17 29 0 4 11 23 25 41 14 18 25 38 25 44 0 7 5 12 10 12 6 0 10 5 10 12
0 6 18 42 40 79 22 37 40 75 40 83 0 9 4 16 9 16 4 0 19 33 32 73 22 67 24 86
23 277 -1 191 -9 283 -35 403 -6 26 -15 47 -19 47 -4 0 -11 16 -15 36 -5 32
-82 189 -106 220 -5 6 -5 15 -1 19 4 5 1 5 -5 1 -7 -4 -13 -3 -13 1 0 15 -180
191 -285 280 -48 40 -156 103 -177 103 -5 0 -24 6 -41 14 -118 53 -218 72
-437 82 -58 2 -124 9 -147 14 -53 13 -154 13 -173 0z m231 -209 l30 -48 72 -7
c39 -4 73 -9 76 -11 3 -3 -17 -28 -44 -55 l-48 -49 12 -39 c8 -22 24 -52 36
-68 l22 -28 50 32 c54 35 152 72 190 72 l23 0 -20 -40 c-30 -58 -61 -142 -56
-147 3 -3 27 10 53 30 48 35 128 66 139 54 4 -4 -8 -23 -26 -44 -18 -20 -43
-61 -56 -90 -13 -29 -27 -53 -32 -53 -5 0 -31 6 -58 14 -167 47 -205 51 -429
51 -232 0 -260 -4 -372 -56 -24 -10 -45 -19 -48 -19 -3 0 -22 26 -43 58 -20
31 -49 73 -64 93 -26 33 -36 59 -22 59 3 0 24 -9 47 -19 148 -67 157 -70 157
-54 0 9 -16 49 -36 90 -19 41 -33 77 -30 80 7 7 163 -49 223 -80 23 -12 43
-19 45 -17 2 3 16 31 32 63 l29 59 -54 49 c-30 26 -52 49 -49 50 3 1 39 6 80
13 l75 11 25 47 c14 27 29 48 33 48 4 0 21 -22 38 -49z m-959 -426 c20 -27 41
-68 47 -92 6 -23 13 -43 15 -43 3 0 33 7 67 16 63 16 163 14 180 -3 12 -12 1
-23 -58 -66 -29 -21 -72 -61 -96 -88 l-43 -51 -54 16 c-72 22 -92 20 -180 -11
-69 -24 -80 -26 -108 -14 -18 8 -32 19 -32 25 0 7 20 31 44 55 54 53 101 153
116 245 6 38 13 73 16 78 9 14 46 -15 86 -67z m1948 14 c0 -60 31 -151 77
-222 25 -40 52 -76 59 -80 8 -4 14 -19 14 -32 l0 -25 -149 0 c-82 0 -160 4
-173 9 -13 5 -41 25 -63 46 -22 20 -68 59 -102 87 -35 28 -63 55 -63 58 0 23
182 18 229 -6 31 -16 33 -14 55 59 18 60 76 137 102 137 9 0 14 -11 14 -31z
m48 -21 c39 -78 83 -201 80 -222 -3 -17 -10 -11 -39 34 -35 54 -46 80 -69 168
-9 36 -8 62 4 62 2 0 12 -19 24 -42z m-977 -72 c75 -23 149 -70 149 -95 0 -7
-21 -11 -52 -11 -51 0 -129 -27 -142 -48 -11 -18 -19 -100 -12 -126 8 -31 18
-32 55 -5 22 16 39 19 92 17 59 -3 64 -5 67 -27 2 -13 -9 -56 -24 -95 -22 -54
-42 -85 -86 -128 -58 -58 -59 -58 -119 -58 -69 0 -118 21 -180 77 -53 48 -101
142 -97 191 3 37 3 37 52 40 28 2 68 -4 97 -14 59 -21 79 -10 79 45 0 75 -53
125 -146 136 -65 9 -70 25 -16 59 82 51 196 68 283 42z m258 -117 c33 -60 35
-70 35 -160 0 -56 -6 -109 -14 -130 -14 -35 -29 -74 -49 -122 -6 -15 -11 -58
-11 -95 0 -66 0 -66 63 -147 l62 -80 0 -70 c0 -66 -3 -74 -47 -145 -100 -157
-113 -219 -65 -306 38 -67 75 -148 82 -177 6 -20 2 -26 -22 -33 -15 -4 -32 -8
-36 -8 -4 -1 -19 33 -33 74 -14 41 -42 97 -62 125 -68 92 -49 174 86 371 17
26 32 60 32 74 0 41 -42 129 -89 185 l-42 50 3 75 c3 65 9 88 48 169 l45 95 0
115 c-1 99 -4 122 -23 160 -26 52 -26 54 -9 49 6 -2 27 -33 46 -69z m-674 -14
c-13 -35 -16 -66 -13 -128 4 -72 10 -93 48 -172 33 -68 45 -105 48 -152 6 -84
1 -100 -63 -194 -31 -44 -61 -100 -67 -123 -11 -40 -9 -47 27 -117 20 -41 46
-86 57 -101 33 -47 68 -137 68 -176 0 -27 -17 -67 -64 -150 -35 -62 -66 -115
-69 -118 -9 -9 -77 25 -77 38 0 8 20 44 44 81 64 97 82 156 65 215 -14 54 -52
134 -84 177 -78 107 -71 190 25 295 64 69 73 94 67 169 -3 44 -18 101 -46 171
-45 116 -47 131 -27 209 15 54 63 138 73 127 3 -3 -2 -26 -12 -51z m768 23
c61 -70 75 -200 35 -344 -12 -43 -23 -109 -26 -145 l-4 -66 55 -59 c78 -85 92
-115 92 -204 0 -79 2 -73 -111 -280 -24 -44 -17 -100 21 -160 19 -30 43 -70
52 -88 17 -33 17 -34 -7 -52 -30 -22 -42 -18 -63 23 -9 18 -33 61 -53 97 -31
57 -35 72 -32 122 4 49 13 71 68 160 59 96 64 107 64 164 1 65 2 63 -96 197
-42 57 -43 60 -43 135 1 57 8 98 28 156 35 100 37 218 7 298 -28 75 -25 88 13
46z m-908 -68 c-23 -85 -19 -131 20 -228 66 -162 55 -242 -49 -368 -53 -65
-56 -71 -56 -124 0 -46 6 -67 33 -111 80 -135 90 -159 89 -223 0 -52 -7 -76
-47 -158 l-46 -98 -25 16 c-13 9 -24 22 -24 30 0 12 30 70 72 139 34 57 22
120 -40 208 -39 54 -72 134 -72 173 0 15 5 44 11 65 10 33 26 56 104 151 55
67 57 118 10 242 -52 139 -49 258 9 323 11 13 21 22 22 20 2 -2 -3 -27 -11
-57z m330 1 c17 -20 16 -20 -46 -16 -35 2 -66 4 -68 4 -2 1 2 8 9 16 18 22 83
19 105 -4z m378 0 c19 -19 -5 -28 -60 -23 -35 3 -53 8 -53 17 0 7 6 16 13 19
18 8 88 -1 100 -13z m361 -80 c20 -67 20 -142 2 -207 -36 -125 -29 -190 28
-247 49 -49 106 -140 106 -168 0 -33 26 -49 108 -69 63 -14 65 -28 26 -119
l-27 -61 -51 0 c-55 1 -131 32 -150 63 -8 12 -6 29 7 66 34 97 23 144 -68 277
-33 49 -40 69 -43 120 -2 36 2 86 12 123 19 73 22 261 5 278 -6 6 -8 16 -4 23
10 17 30 -15 49 -79z m-1179 -33 c1 -78 6 -130 18 -167 9 -30 17 -85 17 -121
0 -73 -15 -103 -103 -199 l-40 -44 6 -83 c3 -46 13 -97 22 -114 13 -25 14 -35
4 -46 -18 -22 -112 -46 -166 -42 -46 3 -49 5 -70 48 -12 25 -24 60 -25 79 -3
38 -1 39 126 67 38 9 41 12 57 67 16 55 46 102 97 157 13 14 32 42 43 62 19
37 19 37 -6 142 -31 131 -32 205 -4 263 11 24 22 43 22 43 1 0 2 -51 2 -112z
m1610 -53 c33 -10 74 -20 92 -22 39 -6 50 -18 55 -58 3 -26 -1 -30 -23 -33
-14 -2 -52 8 -84 22 -38 18 -75 26 -111 26 -49 0 -55 2 -64 26 -14 37 -13 44
13 54 25 11 39 9 122 -15z m-1915 0 c0 -4 -7 -19 -15 -35 -14 -27 -18 -28 -82
-28 -38 -1 -88 -8 -112 -16 -86 -31 -147 -16 -139 36 3 21 8 23 63 24 33 1 80
6 105 12 49 11 180 15 180 7z m-60 -184 c0 -41 -11 -51 -55 -51 -24 0 -62 -9
-86 -20 -24 -11 -61 -20 -82 -20 -32 0 -39 4 -48 27 -16 42 -5 53 53 54 29 0
69 6 88 13 19 8 56 14 83 15 40 1 47 -2 47 -18z m2000 -5 c36 -13 78 -27 93
-30 34 -8 45 -32 24 -53 -13 -14 -20 -14 -66 2 -28 9 -53 21 -56 26 -4 5 -24
9 -45 9 -29 0 -42 5 -50 19 -30 56 -1 64 100 27z m-1037 -131 l97 0 41 -65
c22 -36 55 -84 74 -108 58 -73 58 -107 1 -188 -155 -218 -165 -281 -70 -420
35 -50 68 -149 57 -167 -8 -13 -399 -2 -435 12 -16 6 -28 18 -28 28 0 10 27
72 60 138 85 171 84 187 -35 360 -53 78 -65 107 -65 158 0 36 9 54 60 122 33
44 66 95 72 113 12 31 15 33 43 26 16 -5 74 -8 128 -9z m-1005 -47 c3 -23 -1
-28 -25 -33 -36 -8 -40 -10 -85 -29 -36 -15 -39 -15 -58 4 -30 30 -25 37 33
54 28 9 59 20 67 26 8 6 26 9 40 8 19 -2 26 -10 28 -30z m2072 -15 c52 -23 59
-29 54 -47 -9 -31 -12 -31 -47 -17 -18 7 -53 20 -79 29 -38 14 -48 22 -48 40
0 31 44 29 120 -5z m-2055 -152 c0 -17 -10 -26 -40 -38 -55 -21 -89 -22 -93
-2 -2 9 13 23 40 36 79 38 93 39 93 4z m2018 -17 c33 -22 36 -28 25 -42 -7 -9
-13 -19 -15 -21 -1 -2 -24 7 -52 20 -38 18 -50 29 -51 47 0 31 44 30 93 -4z
m-1973 -134 c19 -12 7 -22 -44 -39 -32 -11 -40 -11 -47 0 -20 31 55 62 91 39z
m1898 -6 c23 -16 29 -39 13 -49 -8 -4 -44 8 -89 31 -1 1 0 9 4 18 8 20 43 21
72 0z m-1838 -138 c0 -21 -27 -38 -50 -31 -22 7 -27 30 -7 38 25 11 57 7 57
-7z m1758 2 c28 -28 0 -56 -32 -32 -11 7 -16 20 -13 29 8 18 28 20 45 3z
m-1471 -83 c-3 -18 -24 -61 -47 -95 -34 -50 -44 -59 -56 -49 -27 22 -15 49 61
141 38 47 49 48 42 3z m1167 -22 c8 -16 26 -41 41 -58 49 -55 65 -105 35 -105
-20 0 -110 147 -110 180 0 20 20 10 34 -17z m-1366 -26 c2 -10 -3 -17 -12 -17
-18 0 -29 16 -21 31 9 14 29 6 33 -14z m1571 4 c12 -8 12 -12 2 -25 -8 -9 -19
-16 -26 -16 -18 0 -26 25 -12 39 13 13 18 13 36 2z"/>
<path d="M4480 4024 c-69 -48 -100 -76 -94 -85 7 -12 274 -12 274 0 0 9 -128
111 -139 111 -3 -1 -22 -12 -41 -26z m91 -30 c27 -20 46 -40 43 -46 -8 -12
-163 -3 -176 10 -6 6 65 70 81 72 2 0 25 -16 52 -36z"/>
<path d="M4452 3427 c-13 -15 -5 -30 26 -46 45 -24 119 11 92 44 -16 19 -103
20 -118 2z"/>
<path d="M4413 3354 c-36 -16 49 -84 104 -84 38 0 105 52 88 69 -11 11 -173
24 -192 15z"/>
<path d="M2761 3854 c0 -11 3 -14 6 -6 3 7 2 16 -1 19 -3 4 -6 -2 -5 -13z"/>
<path d="M2775 3679 c-4 -6 -5 -12 -2 -15 2 -3 7 2 10 11 7 17 1 20 -8 4z"/>
<path d="M5803 3245 c0 -22 2 -30 4 -17 2 12 2 30 0 40 -3 9 -5 -1 -4 -23z"/>
<path d="M2841 3074 c0 -11 3 -14 6 -6 3 7 2 16 -1 19 -3 4 -6 -2 -5 -13z"/>
<path d="M5726 2885 c-9 -26 -7 -32 5 -12 6 10 9 21 6 23 -2 3 -7 -2 -11 -11z"/>
<path d="M6121 2494 c0 -11 3 -14 6 -6 3 7 2 16 -1 19 -3 4 -6 -2 -5 -13z"/>
<path d="M2911 2414 c0 -11 3 -14 6 -6 3 7 2 16 -1 19 -3 4 -6 -2 -5 -13z"/>
<path d="M2932 2370 c0 -19 2 -27 5 -17 2 9 2 25 0 35 -3 9 -5 1 -5 -18z"/>
<path d="M3278 1803 c7 -3 16 -2 19 1 4 3 -2 6 -13 5 -11 0 -14 -3 -6 -6z"/>
<path d="M3758 1663 c7 -3 16 -2 19 1 4 3 -2 6 -13 5 -11 0 -14 -3 -6 -6z"/>
<path d="M4058 1643 c7 -3 16 -2 19 1 4 3 -2 6 -13 5 -11 0 -14 -3 -6 -6z"/>
<path d="M4378 1633 c7 -3 16 -2 19 1 4 3 -2 6 -13 5 -11 0 -14 -3 -6 -6z"/>
<path d="M4448 1633 c12 -2 30 -2 40 0 9 3 -1 5 -23 4 -22 0 -30 -2 -17 -4z"/>
<path d="M4618 1633 c7 -3 16 -2 19 1 4 3 -2 6 -13 5 -11 0 -14 -3 -6 -6z"/>
<path d="M3100 1109 c0 -5 5 -7 10 -4 6 3 10 8 10 11 0 2 -4 4 -10 4 -5 0 -10
-5 -10 -11z"/>
<path d="M5861 974 c0 -11 3 -14 6 -6 3 7 2 16 -1 19 -3 4 -6 -2 -5 -13z"/>
<path d="M3195 920 c3 -5 8 -10 11 -10 2 0 4 5 4 10 0 6 -5 10 -11 10 -5 0 -7
-4 -4 -10z"/>
<path d="M5660 876 c0 -2 7 -7 16 -10 8 -3 12 -2 9 4 -6 10 -25 14 -25 6z"/>
<path d="M5208 753 c6 -2 18 -2 25 0 6 3 1 5 -13 5 -14 0 -19 -2 -12 -5z"/>
<path d="M5510 710 c-9 -6 -10 -10 -3 -10 6 0 15 5 18 10 8 12 4 12 -15 0z"/>
<path d="M5700 620 c0 -5 5 -10 11 -10 5 0 7 5 4 10 -3 6 -8 10 -11 10 -2 0
-4 -4 -4 -10z"/>
<path d="M4258 613 c7 -3 16 -2 19 1 4 3 -2 6 -13 5 -11 0 -14 -3 -6 -6z"/>
<path d="M4315 523 c-5 -12 -9 -14 -12 -5 -3 6 -17 12 -31 12 -19 0 -23 -3
-14 -9 8 -4 13 -11 12 -15 -3 -9 18 -95 32 -129 7 -17 17 -27 27 -25 12 2 17
19 21 73 3 48 9 70 18 70 12 0 32 22 32 38 0 4 -18 7 -39 7 -28 0 -41 -5 -46
-17z"/>
<path d="M4230 499 c0 -5 5 -7 10 -4 6 3 10 8 10 11 0 2 -4 4 -10 4 -5 0 -10
-5 -10 -11z"/>
<path d="M4372 455 c0 -16 2 -22 5 -12 2 9 2 23 0 30 -3 6 -5 -1 -5 -18z"/>
<path d="M3618 463 c7 -3 16 -2 19 1 4 3 -2 6 -13 5 -11 0 -14 -3 -6 -6z"/>
<path d="M4255 400 c3 -5 8 -10 11 -10 2 0 4 5 4 10 0 6 -5 10 -11 10 -5 0 -7
-4 -4 -10z"/>
<path d="M4013 373 c9 -2 23 -2 30 0 6 3 -1 5 -18 5 -16 0 -22 -2 -12 -5z"/>
<path d="M4123 373 c9 -2 23 -2 30 0 6 3 -1 5 -18 5 -16 0 -22 -2 -12 -5z"/>
<path d="M4668 373 c7 -3 16 -2 19 1 4 3 -2 6 -13 5 -11 0 -14 -3 -6 -6z"/>
<path d="M4418 353 c7 -3 16 -2 19 1 4 3 -2 6 -13 5 -11 0 -14 -3 -6 -6z"/>
<path d="M4895 8030 c-10 -11 -15 -20 -11 -20 11 0 39 30 34 36 -3 2 -13 -5
-23 -16z"/>
<path d="M5268 7993 c7 -3 16 -2 19 1 4 3 -2 6 -13 5 -11 0 -14 -3 -6 -6z"/>
<path d="M3358 7922 c-27 -15 -69 -45 -95 -67 -26 -22 -76 -59 -112 -83 -74
-48 -72 -50 11 -9 31 16 84 53 119 83 34 29 75 59 90 66 16 7 31 18 34 25 2 7
3 13 2 12 -1 0 -23 -12 -49 -27z"/>
<path d="M4715 7930 c-19 -8 -19 -9 3 -9 12 -1 22 4 22 9 0 6 -1 10 -2 9 -2 0
-12 -4 -23 -9z"/>
<path d="M4115 7910 c3 -5 14 -10 23 -10 15 0 15 2 2 10 -20 13 -33 13 -25 0z"/>
<path d="M4200 7891 c8 -5 40 -11 70 -14 l55 -6 -45 14 c-50 16 -106 20 -80 6z"/>
<path d="M4575 7829 c3 -4 0 -9 -6 -11 -7 -2 -4 -10 7 -18 16 -14 17 -13 11 3
-3 9 -2 17 3 17 11 0 13 -10 10 -59 -1 -22 2 -31 9 -27 7 4 9 24 6 47 -3 26
-1 39 7 39 21 0 0 12 -26 14 -14 2 -23 0 -21 -5z"/>
<path d="M3040 7698 c-19 -17 -26 -25 -15 -19 30 16 59 40 54 45 -2 2 -20 -10
-39 -26z"/>
<path d="M2960 7629 c-19 -17 -51 -42 -70 -57 -38 -29 -131 -125 -125 -130 1
-2 32 25 68 60 36 35 89 84 118 110 30 26 52 47 49 47 -3 1 -21 -13 -40 -30z"/>
<path d="M2719 7392 c-13 -15 -32 -39 -42 -53 -9 -13 -37 -50 -60 -82 -42 -56
-91 -143 -165 -292 -19 -38 -38 -78 -43 -87 -5 -10 -5 -20 1 -23 6 -4 13 7 16
24 4 17 10 31 15 31 5 0 9 6 9 13 0 6 6 23 13 37 19 34 69 125 102 185 16 28
33 59 39 70 17 29 113 160 132 179 9 9 14 19 11 22 -2 3 -15 -8 -28 -24z"/>
<path d="M2382 6817 c-10 -19 -44 -119 -73 -213 -5 -17 -9 -39 -8 -50 1 -12 4
-8 9 11 5 17 27 84 50 149 38 112 47 154 22 103z"/>
<path d="M2281 6494 c0 -11 3 -14 6 -6 3 7 2 16 -1 19 -3 4 -6 -2 -5 -13z"/>
</g>
</svg>
