<?xml version="1.0" standalone="no"?>
<!DOCTYPE svg PUBLIC "-//W3C//DTD SVG 20010904//EN"
 "http://www.w3.org/TR/2001/REC-SVG-20010904/DTD/svg10.dtd">
<svg version="1.0" xmlns="http://www.w3.org/2000/svg"
 width="512.000000pt" height="512.000000pt" viewBox="0 0 512.000000 512.000000"
 preserveAspectRatio="xMidYMid meet">

<g transform="translate(0.000000,512.000000) scale(0.100000,-0.100000)"
fill="#000000" stroke="none">
<path d="M1042 4300 c-108 -49 -108 -231 0 -280 42 -19 78 -20 1518 -20 1440
0 1476 1 1518 20 108 49 108 231 0 280 -42 19 -78 20 -1518 20 -1440 0 -1476
-1 -1518 -20z"/>
<path d="M402 2700 c-108 -49 -108 -231 0 -280 42 -19 85 -20 2158 -20 2073 0
2116 1 2158 20 108 49 108 231 0 280 -42 19 -85 20 -2158 20 -2073 0 -2116 -1
-2158 -20z"/>
<path d="M1042 1100 c-108 -49 -108 -231 0 -280 42 -19 78 -20 1518 -20 1440
0 1476 1 1518 20 108 49 108 231 0 280 -42 19 -78 20 -1518 20 -1440 0 -1476
-1 -1518 -20z"/>
</g>
</svg>
